# xmcd
#
# Track frame offsets: 
#        220
#        12022
#        25712
#        40675
#        54927
#        72370
#        83860
#        96375
#        114220
#        126375
#        143645
#
# Disc length: 2123 seconds
#
# Revision: 1
# Processed by: cddbd v1.5.2PL0 Copyright (c) Steve Scherf et al.
# Submitted via: ExactAudioCopy v1.0b3
#
DISCID=8508490b
DTITLE=Bluegrass Album Band - Volume 5 Sweet Sunny South
DYEAR=1989
DGENRE=Bluegrass
TTITLE0=Rock Hearts
TTITLE1=Big Black Train
TTITLE2=Thinking About You
TTITLE3=Out In The Cold World
TTITLE4=On The Old Kentucky Shore
TTITLE5=Preaching Praying Singing
TTITLE6=Someone Took My Place With You
TTITLE7=Foggy Mountain Rock
TTITLE8=My Home's Accross The Blue Ridge Mountains
TTITLE9=Along About Daybreak
TTITLE10=Sweet Sonny South
EXTD=
EXTT0=
EXTT1=
EXTT2=
EXTT3=
EXTT4=
EXTT5=
EXTT6=
EXTT7=
EXTT8=
EXTT9=
EXTT10=
PLAYORDER=
